<?xml version="1.0" encoding="UTF-8"?>
<svg width="126px" height="31px" viewBox="0 0 126 31" version="1.1" xmlns="http://www.w3.org/2000/svg" xmlns:xlink="http://www.w3.org/1999/xlink">
    <!-- Generator: Sketch 48.2 (47327) - http://www.bohemiancoding.com/sketch -->
    <title>liven-logo</title>
    <desc>Created with Sketch.</desc>
    <defs></defs>
    <g id="Landing_Page-Copy-21" stroke="none" stroke-width="1" fill="none" fill-rule="evenodd" transform="translate(-175.000000, -30.000000)">
        <g id="liven-logo" transform="translate(175.000000, 30.000000)" fill="#FFFFFF" fill-rule="nonzero">
            <path d="M27.4642263,1.27415635 C27.4642263,0.805996219 27.8400182,0.426477405 28.3026672,0.426477405 L29.9819717,0.426477405 C30.9071958,0.426477405 31.6572379,1.18832747 31.6572379,2.12381506 L31.6572379,29.938758 C31.6572379,30.4069181 31.281446,30.7864369 30.818797,30.7864369 L29.1394925,30.7864369 C28.2142684,30.7864369 27.4642263,30.0245869 27.4642263,29.0890993 L27.4642263,1.27415635 Z M102.099834,1.26019735 C102.099834,-0.14623733 102.828413,-0.416362841 103.727364,0.657096328 L121.503883,21.8844756 C121.728646,22.1528704 121.910852,22.0864786 121.910852,21.7317123 L121.910852,1.93082592 C121.910852,0.991644399 122.660865,0.230287313 123.588815,0.230287313 L125.162633,0.230287313 C125.625098,0.230287313 126,0.612560603 126,1.0793125 L126,29.7325924 C126,31.1400776 125.264006,31.4175891 124.355587,30.3518156 L106.600486,9.5212177 C106.373218,9.25458337 106.188981,9.32533142 106.188981,9.67742351 L106.188981,29.0855688 C106.188981,30.0228971 105.438969,30.7827519 104.511018,30.7827519 L102.937201,30.7827519 C102.474736,30.7827519 102.099834,30.4030874 102.099834,29.9332407 L102.099834,1.26019735 Z M75.4742097,1.27415635 C75.4742097,0.805996219 75.8494291,0.426477405 76.3130357,0.426477405 L92.2108387,0.426477405 C92.6741097,0.426477405 92.9634594,0.796804157 92.8569179,1.25449201 L92.2899397,3.69015288 C92.1834885,4.14745285 91.7209149,4.51816749 91.2603534,4.51816749 L80.1652511,4.51816749 C79.8739737,4.51816749 79.6378465,4.75760375 79.6378465,5.05203782 L79.6378465,11.8627321 C79.6378465,12.145774 79.8654795,12.3752248 80.1446269,12.3752248 L89.2312448,12.3752248 C89.6955045,12.3752248 89.9937285,12.7483523 89.897975,13.2056287 L89.3991026,15.5880225 C89.3030679,16.046642 88.8493801,16.4184266 88.3869922,16.4184266 L80.1669616,16.4184266 C79.8747395,16.4184266 79.6378465,16.6584552 79.6378465,16.9534388 L79.6378465,26.1233433 C79.6378465,26.4070786 79.8649346,26.6370916 80.1424254,26.6370916 L91.5710707,26.6370916 C92.033859,26.6370916 92.5740261,26.9766499 92.778845,27.3981455 L94.0555083,30.025383 C94.2597553,30.4457016 94.0510343,30.7864369 93.5865715,30.7864369 L77.9907722,30.7864369 C76.600913,30.7864369 75.4742097,29.6471285 75.4742097,28.2371699 L75.4742097,1.27415635 Z M40.5481726,1.39138486 C40.3092022,0.858481158 40.5839807,0.426477405 41.1631494,0.426477405 L43.5243251,0.426477405 C44.102938,0.426477405 44.7694149,0.859577938 45.0107559,1.38903674 L54.0135379,21.1395167 C54.1363227,21.408884 54.3326548,21.4070193 54.4502272,21.1395167 L63.1278764,1.39601125 C63.3632209,0.860552429 64.0236068,0.426477405 64.6022309,0.426477405 L67.0130505,0.426477405 C67.5919696,0.426477405 67.8691174,0.861109311 67.6327613,1.39570828 L54.958076,30.0637675 C54.5324539,31.0264549 53.8378178,31.0272581 53.4070219,30.0665842 L40.5481726,1.39138486 Z M0,1.27415635 C0,0.805996219 0.376021737,0.426477405 0.838247601,0.426477405 L2.47674762,0.426477405 C3.40340655,0.426477405 4.15461184,1.18555197 4.15461184,2.12469465 L4.15461184,26.0814213 C4.15461184,26.3769061 4.39298937,26.6164438 4.68367074,26.6164438 L16.1011008,26.6164438 C16.5644038,26.6164438 17.0885154,26.9648027 17.2723213,27.3958959 L18.385616,30.0069849 C18.5691603,30.4374643 18.3440542,30.7864369 17.8773175,30.7864369 L2.51466796,30.7864369 C1.12585528,30.7864369 0,29.6471285 0,28.2371699 L0,1.27415635 Z" id="Liven_RGB_Red"></path>
        </g>
    </g>
</svg>