<svg xmlns="http://www.w3.org/2000/svg" viewBox="0 0 105 31.11"><defs><style>.cls-1{fill:#ee4a6a;}.cls-2{fill:#fff;}</style></defs><title>appstore-vector</title><g id="Layer_2" data-name="Layer 2"><g id="Layer_1-2" data-name="Layer 1"><path class="cls-1" d="M101.11,0H3.89A3.9,3.9,0,0,0,0,3.89H0V27.22H0a3.9,3.9,0,0,0,3.89,3.89h97.22A3.9,3.9,0,0,0,105,27.22h0V3.89h0A3.9,3.9,0,0,0,101.11,0Z"/><g id="_Group_" data-name="&lt;Group&gt;"><g id="_Group_2" data-name="&lt;Group&gt;"><path id="_Path_" data-name="&lt;Path&gt;" class="cls-2" d="M26.47,16A3.14,3.14,0,0,1,28,13.36,3.22,3.22,0,0,0,25.44,12c-1.07-.11-2.1.64-2.65.64S21.4,12,20.5,12a3.37,3.37,0,0,0-2.83,1.73c-1.23,2.13-.32,5.25.86,7,.59.84,1.28,1.78,2.17,1.74s1.21-.56,2.28-.56,1.36.56,2.27.54,1.54-.84,2.11-1.69a7,7,0,0,0,1-2A3.05,3.05,0,0,1,26.47,16Z"/><path id="_Path_2" data-name="&lt;Path&gt;" class="cls-2" d="M24.74,10.86a3.09,3.09,0,0,0,.71-2.21,3.13,3.13,0,0,0-2,1,2.89,2.89,0,0,0-.72,2.13A2.57,2.57,0,0,0,24.74,10.86Z"/></g></g><path class="cls-2" d="M43.34,16.51l-.6,1.27H41.67v-.13l2.84-6.06H45l2.83,6.06v.13H46.75l-.6-1.27Zm.33-.86h2.15l-1.07-2.47Z"/><path class="cls-2" d="M51,13.43a2,2,0,0,1,1.92,2.21,2,2,0,0,1-2.12,2.18,2.22,2.22,0,0,1-1.07-.33V20h-1V14.9c0-.49,0-.73-.45-.73v-.66c.7-.14,1.24,0,1.24.72A1.45,1.45,0,0,1,51,13.43Zm-1.29,3.22a1.78,1.78,0,0,0,1.08.34,1.22,1.22,0,0,0,1.16-1.35,1.21,1.21,0,0,0-1.14-1.36,1.12,1.12,0,0,0-1.1,1.18Z"/><path class="cls-2" d="M56.22,13.43a2,2,0,0,1,1.91,2.21A2,2,0,0,1,56,17.82a2.26,2.26,0,0,1-1.08-.33V20H54V14.9c0-.49,0-.73-.45-.73v-.66c.7-.14,1.24,0,1.24.72A1.44,1.44,0,0,1,56.22,13.43Zm-1.29,3.22A1.77,1.77,0,0,0,56,17a1.22,1.22,0,0,0,1.16-1.35A1.21,1.21,0,0,0,56,14.28a1.12,1.12,0,0,0-1.1,1.18Z"/><path class="cls-2" d="M62.77,16c0,.7.8.95,1.46.95s1.43-.19,1.43-1-.84-.88-1.55-.95c-1.12-.1-2.24-.46-2.24-1.69s1.12-1.86,2.31-1.86,2.28.52,2.3,1.78h-1c0-.66-.74-.87-1.35-.87s-1.29.23-1.29.92.7.78,1.41.88c1.24.14,2.39.39,2.39,1.8s-1.28,1.86-2.43,1.86-2.46-.57-2.49-1.86Z"/><path class="cls-2" d="M68.89,13.55h1.47v.69H68.89v1.91c0,1.08.68,1.15,1.55.84l.09.72c-1.45.45-2.58.11-2.58-1.55V14.24l-.86-.06v-.63H68l.1-1.31h.84Z"/><path class="cls-2" d="M73.19,17.86a2.21,2.21,0,1,1,2.24-2.21A2.14,2.14,0,0,1,73.19,17.86Zm0-.84a1.28,1.28,0,0,0,1.27-1.37,1.29,1.29,0,1,0-2.57,0A1.28,1.28,0,0,0,73.21,17Z"/><path class="cls-2" d="M78.51,13.4a1.64,1.64,0,0,1,1,.3l-.24.83a1.46,1.46,0,0,0-.84-.26,1,1,0,0,0-1.08,1.06v2.45h-.95V14.7c0-.37,0-.57-.46-.54v-.65c.63-.14,1.31,0,1.36.65A1.29,1.29,0,0,1,78.51,13.4Z"/><path class="cls-2" d="M83.91,15.84H80.79a1.25,1.25,0,0,0,1.38,1.23,3.4,3.4,0,0,0,1.53-.27l.13.72a4.09,4.09,0,0,1-1.6.36,2.17,2.17,0,0,1-2.38-2.31A2.06,2.06,0,0,1,82,13.45,1.78,1.78,0,0,1,83.91,15.84Zm-3.11-.68h2.34c0-.64-.5-1-1.11-1A1.14,1.14,0,0,0,80.8,15.16Z"/></g></g></svg>