<svg xmlns="http://www.w3.org/2000/svg" xmlns:xlink="http://www.w3.org/1999/xlink" viewBox="0 0 320.79 182"><defs><style>.cls-1,.cls-2{fill:#dc3651;}.cls-2{clip-path:url(#clip-path);}.cls-3{fill:#f9e0dc;}.cls-4{clip-path:url(#clip-path-2);}.cls-5{clip-path:url(#clip-path-3);}.cls-6{fill:url(#linear-gradient);}.cls-7{fill:#f490a2;}.cls-8{clip-path:url(#clip-path-4);}.cls-9{fill:url(#linear-gradient-2);}</style><clipPath id="clip-path"><path id="_Clipping_Path_" data-name="&lt;Clipping Path&gt;" class="cls-1" d="M306.52,1.91c-2.95,1.8-281.77,167.7-281.77,167.7,0,.16,2.34,6.75,2.32,6.91L35.39,181s6.48,0,7.25-.48C61.84,168.23,309,8.07,311.33,6.68c4-2.35,3.72-4.56,2.69-6S309.48.11,306.52,1.91Z"/></clipPath><clipPath id="clip-path-2"><path id="_Clipping_Path_2" data-name="&lt;Clipping Path&gt;" class="cls-2" d="M283.33,3.92.84,162.36c0,.06-2,5.71.23,7.49,3.54,2.79,8.21,5.38,8.89,6,0,0,7.46-.24,8.25-.7C37.86,163.55,285.56,10.17,288,8.87c4-2.19,3.89-4.41,2.91-5.86S286.36,2.23,283.33,3.92Z"/></clipPath><clipPath id="clip-path-3"><path id="_Clipping_Path_3" data-name="&lt;Clipping Path&gt;" class="cls-3" d="M310.11,2C307.17,3.76,34,168,34,168c0,.16.13,1.2.11,1.35l8.5,11.18S312.46,8.14,314.89,6.7c3.93-2.32,3.7-4.51,2.67-5.92S313,.19,310.11,2Z"/></clipPath><linearGradient id="linear-gradient" x1="34.8" y1="92.91" x2="328.22" y2="92.91" gradientTransform="translate(-8.01 15.51) rotate(-5.43)" gradientUnits="userSpaceOnUse"><stop offset="0" stop-color="#fc9da9"/><stop offset="0.25" stop-color="#fba3ad"/><stop offset="0.6" stop-color="#f8b4b8"/><stop offset="0.98" stop-color="#f3d0ca"/><stop offset="1" stop-color="#f3d1cb"/></linearGradient><clipPath id="clip-path-4"><path id="_Clipping_Path_4" data-name="&lt;Clipping Path&gt;" class="cls-3" d="M289.56,3C286.58,4.75,9.33,162,9.33,162c0,.15.1,1.19.07,1.35l8.22,11.39S291.76,9.26,294.22,7.88C298.2,5.66,298,3.46,297,2S292.54,1.32,289.56,3Z"/></clipPath><linearGradient id="linear-gradient-2" x1="12.36" y1="88.38" x2="305.79" y2="88.38" gradientTransform="translate(-6.1 11.41) rotate(-3.97)" xlink:href="#linear-gradient"/></defs><title>chopstick_1</title><g id="Layer_2" data-name="Layer 2"><g id="Layer_1-2" data-name="Layer 1"><path id="_Clipping_Path_5" data-name="&lt;Clipping Path&gt;" class="cls-1" d="M306.52,1.91c-2.95,1.8-281.77,167.7-281.77,167.7,0,.16,2.34,6.75,2.32,6.91L35.39,181s6.48,0,7.25-.48C61.84,168.23,309,8.07,311.33,6.68c4-2.35,3.72-4.56,2.69-6S309.48.11,306.52,1.91Z"/><path id="_Clipping_Path_6" data-name="&lt;Clipping Path&gt;" class="cls-1" d="M283.33,3.92.84,162.36c0,.06-2,5.71.23,7.49,3.54,2.79,8.21,5.38,8.89,6,0,0,7.46-.24,8.25-.7C37.86,163.55,285.56,10.17,288,8.87c4-2.19,3.89-4.41,2.91-5.86S286.36,2.23,283.33,3.92Z"/><g class="cls-4"><polygon class="cls-1" points="36.39 182 36.46 174.46 315.76 1.12 316.27 5.99 36.39 182"/></g><path id="_Clipping_Path_7" data-name="&lt;Clipping Path&gt;" class="cls-3" d="M310.11,2C307.17,3.76,34,168,34,168c0,.16.13,1.2.11,1.35l8.5,11.18S312.46,8.14,314.89,6.7c3.93-2.32,3.7-4.51,2.67-5.92S313,.19,310.11,2Z"/><g class="cls-5"><polygon class="cls-6" points="42.64 180.52 42.7 173.05 320.28 1.14 320.79 5.96 42.64 180.52"/></g><path id="_Clipping_Path_8" data-name="&lt;Clipping Path&gt;" class="cls-7" d="M34,168a90.1,90.1,0,0,1,8.67,5.06s.27,6.08-.06,7.47c0,0-7.74-3.93-7.84-5.05A21.13,21.13,0,0,1,34,168Z"/><path id="_Clipping_Path_9" data-name="&lt;Clipping Path&gt;" class="cls-3" d="M289.56,3C286.58,4.75,9.33,162,9.33,162c0,.15.1,1.19.07,1.35l8.22,11.39S291.76,9.26,294.22,7.88C298.2,5.66,298,3.46,297,2S292.54,1.32,289.56,3Z"/><g class="cls-8"><polygon class="cls-9" points="17.61 174.69 17.87 167.22 299.75 2.46 300.13 7.29 17.61 174.69"/></g><path id="_Clipping_Path_10" data-name="&lt;Clipping Path&gt;" class="cls-7" d="M9.33,162s6.17,2.92,8.54,5.27c0,0,.11,6.09-.25,7.47,0,0-7.64-4.13-7.71-5.25A21.29,21.29,0,0,1,9.33,162Z"/></g></g></svg>