<svg xmlns="http://www.w3.org/2000/svg" viewBox="0 0 105 31.11"><defs><style>.cls-1{fill:#ee4a6a;}.cls-2{fill:#fff;}</style></defs><title>gplay-vector</title><g id="Layer_2" data-name="Layer 2"><g id="Layer_1-2" data-name="Layer 1"><path class="cls-1" d="M101.11,0H3.89A3.9,3.9,0,0,0,0,3.89H0V27.22H0a3.9,3.9,0,0,0,3.89,3.89h97.22A3.9,3.9,0,0,0,105,27.22h0V3.89h0A3.9,3.9,0,0,0,101.11,0Z"/><path class="cls-2" d="M40.68,11.54a2.64,2.64,0,0,1,2.76,1.92h-1a1.75,1.75,0,0,0-1.75-1,2.05,2.05,0,0,0-2.07,2.22,2,2,0,0,0,2.07,2.24,1.75,1.75,0,0,0,2-1.6H40.75v-.87h2.88a4.25,4.25,0,0,1-.22,1.67,2.77,2.77,0,0,1-2.73,1.73,3,3,0,0,1-3.11-3.17A3,3,0,0,1,40.68,11.54Z"/><path class="cls-2" d="M46.59,17.85a2.14,2.14,0,0,1-2.23-2.22,2.24,2.24,0,0,1,4.47,0A2.14,2.14,0,0,1,46.59,17.85Zm0-.85a1.27,1.27,0,0,0,1.26-1.37,1.28,1.28,0,1,0-2.56,0A1.27,1.27,0,0,0,46.61,17Z"/><path class="cls-2" d="M51.85,17.85a2.14,2.14,0,0,1-2.23-2.22,2.24,2.24,0,0,1,4.47,0A2.14,2.14,0,0,1,51.85,17.85Zm0-.85a1.27,1.27,0,0,0,1.26-1.37,1.28,1.28,0,1,0-2.56,0A1.27,1.27,0,0,0,51.87,17Z"/><path class="cls-2" d="M58,17.57a2.69,2.69,0,0,1-1.28.35,2,2,0,0,1-1.92-2.23,2.1,2.1,0,0,1,2.37-2.21,4.57,4.57,0,0,1,1.75.4V18a1.92,1.92,0,0,1-2,2.12,3.69,3.69,0,0,1-1.79-.47l.14-.78a3.73,3.73,0,0,0,1.62.44C57.53,19.33,58,19,58,18Zm0-3.13a2.54,2.54,0,0,0-.89-.16,1.24,1.24,0,0,0-1.33,1.41c0,.92.52,1.39,1.18,1.4a1.82,1.82,0,0,0,1-.33Z"/><path class="cls-2" d="M60.94,11.34v4.91c0,.7.18.92.91.81l0,.74c-1.3.21-1.9-.13-1.9-1.54V11.34Z"/><path class="cls-2" d="M66.38,15.83H63.25a1.25,1.25,0,0,0,1.38,1.23,3.42,3.42,0,0,0,1.54-.27l.12.72a4.19,4.19,0,0,1-1.6.36,2.17,2.17,0,0,1-2.38-2.31,2.06,2.06,0,0,1,2.2-2.12A1.78,1.78,0,0,1,66.38,15.83Zm-3.11-.68H65.6c0-.64-.5-1-1.1-1A1.14,1.14,0,0,0,63.27,15.15Z"/><path class="cls-2" d="M71.3,17.77V11.62h2.55A2.08,2.08,0,0,1,76,13.79a2.07,2.07,0,0,1-2.17,2.13H72.33v1.85ZM73.85,15A1.2,1.2,0,0,0,75,13.76a1.17,1.17,0,0,0-1.18-1.25H72.31V15Z"/><path class="cls-2" d="M77.81,11.34v4.91c0,.7.18.92.91.81l0,.74c-1.3.21-1.9-.13-1.9-1.54V11.34Z"/><path class="cls-2" d="M81.06,17.85a1.41,1.41,0,0,1-1.52-1.32c0-1,.71-1.49,1.64-1.49a2.7,2.7,0,0,1,1.26.31v-.42c0-1.12-1.91-.75-2.44-.48l-.14-.69a3.58,3.58,0,0,1,1.57-.33c1,0,1.94.36,1.94,1.53v1.67c0,.39,0,.65.44.6l0,.55c-.67.11-1.19.11-1.22-.72A1.69,1.69,0,0,1,81.06,17.85ZM82.44,16a2.11,2.11,0,0,0-1.1-.29.79.79,0,0,0-.86.8c0,.42.39.61.77.61a1.13,1.13,0,0,0,1.19-.77Z"/><path class="cls-2" d="M86.8,18.13c-.5,1.25-1,2.25-2.49,1.62l.11-.7c.76.34,1.13,0,1.38-.74l.2-.51-1.9-4.16v-.11h1L85.75,15l.69,1.86h0L87.11,15l.56-1.49h1v.11Z"/><path class="cls-2" d="M17.9,13.21a.82.82,0,0,0-.82.82v3.43a.82.82,0,0,0,1.64,0V14a.82.82,0,0,0-.82-.82"/><path class="cls-2" d="M24.51,10.13l.57-1.05a.1.1,0,0,0,0-.15.11.11,0,0,0-.15.05l-.58,1a3.9,3.9,0,0,0-1.61-.34,3.86,3.86,0,0,0-1.6.34l-.58-1a.11.11,0,0,0-.15-.05.12.12,0,0,0-.05.16l.57,1A3.35,3.35,0,0,0,19,13.08h7.38a3.33,3.33,0,0,0-1.88-2.95M21,11.74a.31.31,0,1,1,.31-.31.31.31,0,0,1-.31.31m3.36,0a.31.31,0,1,1,.31-.31.31.31,0,0,1-.31.31"/><path class="cls-2" d="M19,18.68a.87.87,0,0,0,.88.88h.59v1.82a.82.82,0,1,0,1.64,0V19.56h1.11v1.82a.81.81,0,0,0,.82.81.82.82,0,0,0,.82-.82V19.56h.59a.87.87,0,0,0,.88-.88V13.36H19Z"/><path class="cls-2" d="M27.5,13.21a.82.82,0,0,0-.82.82v3.43a.82.82,0,1,0,1.63,0V14a.82.82,0,0,0-.82-.82"/><path class="cls-2" d="M17.9,13.21a.82.82,0,0,0-.82.82v3.43a.82.82,0,0,0,1.64,0V14a.82.82,0,0,0-.82-.82m6.61-3.08.57-1.05a.1.1,0,0,0,0-.15.11.11,0,0,0-.15.05l-.58,1a3.9,3.9,0,0,0-1.61-.34,3.86,3.86,0,0,0-1.6.34l-.58-1a.11.11,0,0,0-.15-.05.12.12,0,0,0-.05.16l.57,1A3.35,3.35,0,0,0,19,13.08h7.38a3.33,3.33,0,0,0-1.88-2.95M21,11.74a.31.31,0,1,1,.31-.31.31.31,0,0,1-.31.31m3.36,0a.31.31,0,0,1-.31-.31.32.32,0,0,1,.31-.31.31.31,0,0,1,.31.31.31.31,0,0,1-.31.31M19,13.37v5.31a.87.87,0,0,0,.88.88h.59v1.82a.82.82,0,1,0,1.64,0V19.56h1.11v1.82a.81.81,0,0,0,.82.81.82.82,0,0,0,.82-.82V19.56h.59a.87.87,0,0,0,.88-.88V13.36Zm9.28.66a.82.82,0,0,0-1.64,0v3.43a.82.82,0,1,0,1.63,0Z"/></g></g></svg>