<svg xmlns="http://www.w3.org/2000/svg" xmlns:xlink="http://www.w3.org/1999/xlink" viewBox="0 0 102.57 56.32"><defs><style>.cls-1{fill:#b5b453;}.cls-17,.cls-2,.cls-20{fill:#3b3516;}.cls-3{fill:#ffcc7a;}.cls-4{fill:#e17626;}.cls-28,.cls-5{fill:#f7a6aa;}.cls-6{fill:#dd3952;}.cls-7{fill:#fff;}.cls-8{fill:#f8eae8;}.cls-9{clip-path:url(#clip-path);}.cls-10{fill:#76a440;opacity:0.4;}.cls-11{fill:#8ca53f;}.cls-12{fill:#6ea642;}.cls-12,.cls-28{opacity:0.3;}.cls-13{fill:#71a341;}.cls-14{fill:#a1a33f;}.cls-15{opacity:0.2;}.cls-16{clip-path:url(#clip-path-2);}.cls-17,.cls-25{opacity:0.69;}.cls-18{clip-path:url(#clip-path-3);}.cls-19{clip-path:url(#clip-path-4);}.cls-20,.cls-34{opacity:0.5;}.cls-21{clip-path:url(#clip-path-5);}.cls-22{clip-path:url(#clip-path-6);}.cls-23{clip-path:url(#clip-path-7);}.cls-24,.cls-25,.cls-34{fill:#f9a237;}.cls-26{clip-path:url(#clip-path-8);}.cls-27{fill:#d86227;}.cls-29{clip-path:url(#clip-path-9);}.cls-30,.cls-32{fill:#f37a88;}.cls-30{opacity:0.31;}.cls-31{fill:#f5f9f8;}.cls-33{clip-path:url(#clip-path-10);}.cls-35{clip-path:url(#clip-path-11);}.cls-36{clip-path:url(#clip-path-12);}.cls-37{clip-path:url(#clip-path-13);}</style><clipPath id="clip-path"><path id="_Clipping_Path_" data-name="&lt;Clipping Path&gt;" class="cls-1" d="M16.55,35.17c-.22.55.68.82,1.8,1.16s1,.67,2.11,1,1.8-1.46,2.23-.41-.12,1.16-1,2.51.41,1.23.3,1.5c-.63,1.59-.63,1.59.59,2.14,2.19,1,1.4,1.23,2.26,1.18s1.68-1.29,2.71-.67.41.75.57,1.55c.24,1.12.88,1.38,2.18,1.12s.65.42,2.66.53c2.32.13.77-1.16,3.24-1s2.13-1.51,3.05-.62-.91,1.41,1.42,1.91.58-.85,3.05-.71,1.82-.58,2.3-.74.28,3.19,2.37,3.22a12.17,12.17,0,0,1,3.23.36c2,.3,1.56,1.39,2.26,2.83s1.4.73,2.64.8,1.56,1.39,2.3-.52,1-.32,1.17-3,5.68-1.64,6.21-3S62.6,41.5,61.09,38.9s-14.47-7.15-15.45-9-1.25-16.3-1.31-17.24.37-2,.1-2.42-1.24-.07-1.67-1.12S43,7.4,41,7.1s-2.36-.41-3.43.18-1.33-1.16-3.43-.65c-1,.25-.46.62-1.8.83s-1.06,2-1.46,2c-2.45,0-1.79-.21-2.74,1.24-.33.51,1.77.16,1.16,1.44-.37.79-1.58.6-2.32.93-2.13.93,1.23,3.32-.75,3s-1.91-3.95-4-3c-1.11.51-1.3.87-2.06,1.05s-1.25.14-1.67,1.23.74.71-1.46,2.39c-1.67,1.28-.51,2.27-.83,3.1s.32,1.2-.64,1.52-1.3-.55-2,.15-.15,1.38-1.15,2.28c-1.26,1.15-.36,2.05-.2,2.71s-1.48.81-.19,1.92-.48,1.93.43,2.82,1,.61,1.09,1.55c.09,1.51,2.21.36,1.93.51C16.47,33.83,16.55,35.17,16.55,35.17Z"/></clipPath><clipPath id="clip-path-2"><path id="_Clipping_Path_2" data-name="&lt;Clipping Path&gt;" class="cls-2" d="M55.43,15.38c-.1.29-.21,1.45-.34,1.62-.51.68-2.27.55-3.29,1.91S45.07,23,42.46,24,26.11,32.15,24,32.46s-3.37-1.17-7.09-3.12c-2-1-4.36-4.85-1.36-7.08.44-.33,2.79-.72,4.82-2A44,44,0,0,1,29.43,17c2.25-.26,5-2.42,6.62-4,.66-.61,10.19-7.26,11.68-6.17s6.08,3.69,6.68,5.24c.45,1.15,1.29,2.22,1,3.08"/></clipPath><clipPath id="clip-path-3"><path id="_Clipping_Path_3" data-name="&lt;Clipping Path&gt;" class="cls-2" d="M18.72,23.79c-.5-.14-2.4-1-2.87-.84-.83.33-1.09,1.65-1.07,2.49,0,1.29,1.28,2.7,3.68,3.88,1.25.62,4.95,4,6,1.15.7-1.94.46-2.37-1.3-4.15A12.21,12.21,0,0,0,18.72,23.79Z"/></clipPath><clipPath id="clip-path-4"><path id="_Clipping_Path_4" data-name="&lt;Clipping Path&gt;" class="cls-2" d="M23.88,31.91a2.77,2.77,0,0,0-.64,2.7,6.2,6.2,0,0,0,1.55,2.73c1.46,1.27,1.58,1.67,3.36,3s2.25,2.23,5.24,1.47,3-2.05,6.36-2.76S53,33.34,55.44,32.15s8.29-3.27,9.64-5.51,2-2.81.79-4.6A17.75,17.75,0,0,0,58.59,17c-1.8-.39-2.83-.33-6,1.52s-9.63,4-12.27,5.2C38,24.72,27.51,28.08,23.88,31.91Z"/></clipPath><clipPath id="clip-path-5"><path id="_Clipping_Path_5" data-name="&lt;Clipping Path&gt;" class="cls-2" d="M24.9,32a2,2,0,0,1,.91-.09,6.77,6.77,0,0,1,3.57,2.27c1.24,1.63,1.67,1.46,2.46,3.25s.61,5.49-2,3.28-3-1.72-4.74-4.27c-.77-1.11-2-2.71-.94-3.93A1.77,1.77,0,0,1,24.9,32"/></clipPath><clipPath id="clip-path-6"><path id="_Clipping_Path_6" data-name="&lt;Clipping Path&gt;" class="cls-2" d="M41.53,40.18a3.41,3.41,0,0,1,.38-3,4.69,4.69,0,0,1,1.83-1.7c3.67-1.58,6.65-1.93,8.47-3.13s15.71-5.57,17.59-7.2,4.13-3.66,6.32-1.75,8.54,6.34,8.3,8,1.36,2-1.88,3.1S77,36,73.62,37.81s-7.49,4.84-11.57,6a32.05,32.05,0,0,0-7.9,3.5c-2.24,1.22-5.35.43-6.27-.73C45.76,44,42.74,43,41.53,40.18Z"/></clipPath><clipPath id="clip-path-7"><path id="_Clipping_Path_7" data-name="&lt;Clipping Path&gt;" class="cls-3" d="M57.3,16A14.07,14.07,0,0,1,57,17.57c-.49.66-2.21.54-3.2,1.86s-6.55,4-9.09,4.93-15.92,8-18,8.26-3.28-1.14-6.91-3c-1.9-1-4.24-4.73-1.32-6.9.43-.32,2.72-.7,4.7-1.91A43.31,43.31,0,0,1,32,17.54c2.2-.25,4.86-2.36,6.46-3.86.64-.6,9.91-7.08,11.36-6s5.93,3.59,6.51,5.1c.43,1.12,1.26,2.16,1,3"/></clipPath><clipPath id="clip-path-8"><path id="_Clipping_Path_8" data-name="&lt;Clipping Path&gt;" class="cls-4" d="M21.56,24.18c-.48-.14-2.34-1-2.8-.82-.8.33-1.05,1.61-1,2.42,0,1.26,1.25,2.63,3.59,3.79,1.21.6,4.82,3.87,5.82,1.11.68-1.88.45-2.3-1.26-4A12,12,0,0,0,21.56,24.18Z"/></clipPath><clipPath id="clip-path-9"><path id="_Clipping_Path_9" data-name="&lt;Clipping Path&gt;" class="cls-5" d="M58.88,11.44s.09,6.4,13.46,5.84c12.37-.51,12.73-4.06,13.66-6a32.08,32.08,0,0,1-.22,3.9s-.92,6.5-13.14,6.64c-11.68.14-13.29-5.14-13.46-6.1S58.88,11.44,58.88,11.44Z"/></clipPath><clipPath id="clip-path-10"><path id="_Clipping_Path_10" data-name="&lt;Clipping Path&gt;" class="cls-3" d="M24.53,31.45a2.76,2.76,0,0,0-.63,2.7,6.07,6.07,0,0,0,1.55,2.72c1.46,1.28,1.57,1.67,3.35,3s2.26,2.22,5.25,1.46,3-2,6.36-2.76,13.25-5.73,15.68-6.92,8.29-3.28,9.64-5.51,2-2.81.79-4.61a17.81,17.81,0,0,0-7.28-5.08c-1.79-.4-2.83-.33-6,1.51S43.63,22,41,23.21C38.63,24.25,28.16,27.62,24.53,31.45Z"/></clipPath><clipPath id="clip-path-11"><path id="_Clipping_Path_11" data-name="&lt;Clipping Path&gt;" class="cls-4" d="M27.57,32.2a1.91,1.91,0,0,1,.89-.09,6.65,6.65,0,0,1,3.48,2.21c1.2,1.58,1.62,1.42,2.4,3.16s.58,5.35-2,3.2-2.9-1.67-4.62-4.16c-.75-1.08-1.95-2.64-.91-3.83a1.63,1.63,0,0,1,.73-.49"/></clipPath><clipPath id="clip-path-12"><path id="_Clipping_Path_12" data-name="&lt;Clipping Path&gt;" class="cls-3" d="M42.19,39.72a3.4,3.4,0,0,1,.37-3A4.78,4.78,0,0,1,44.39,35c3.67-1.57,6.66-1.93,8.47-3.13s15.72-5.57,17.6-7.19S74.59,21,76.78,22.9s8.53,6.33,8.3,8,1.35,2-1.89,3.1-5.57,1.56-8.92,3.38-7.49,4.84-11.56,6a31.61,31.61,0,0,0-7.91,3.5c-2.23,1.21-5.35.42-6.27-.73C46.41,43.49,43.39,42.56,42.19,39.72Z"/></clipPath><clipPath id="clip-path-13"><path id="_Clipping_Path_13" data-name="&lt;Clipping Path&gt;" class="cls-4" d="M41,38.85c.13-.76,1.19-.74,2-.73a4.69,4.69,0,0,1,3.1,1.66,13.29,13.29,0,0,1,3.37,5.3c.53,1.35.39,2.3-1.51,1.76a3.63,3.63,0,0,1-2.57-2.15c-.29-.52-4.67-3.09-4.44-4.67C40.94,39.81,41,39,41,38.85Z"/></clipPath></defs><title>plate</title><g id="Layer_2" data-name="Layer 2"><g id="Layer_1-2" data-name="Layer 1"><ellipse class="cls-6" cx="49.66" cy="28.98" rx="49.89" ry="25.31" transform="translate(-2.93 5.74) rotate(-6.42)"/><ellipse class="cls-7" cx="52.46" cy="27.95" rx="50.11" ry="27.95"/><ellipse class="cls-8" cx="52.46" cy="27.95" rx="48.23" ry="26.44"/><path id="_Clipping_Path_14" data-name="&lt;Clipping Path&gt;" class="cls-1" d="M16.55,35.17c-.22.55.68.82,1.8,1.16s1,.67,2.11,1,1.8-1.46,2.23-.41-.12,1.16-1,2.51.41,1.23.3,1.5c-.63,1.59-.63,1.59.59,2.14,2.19,1,1.4,1.23,2.26,1.18s1.68-1.29,2.71-.67.41.75.57,1.55c.24,1.12.88,1.38,2.18,1.12s.65.42,2.66.53c2.32.13.77-1.16,3.24-1s2.13-1.51,3.05-.62-.91,1.41,1.42,1.91.58-.85,3.05-.71,1.82-.58,2.3-.74.28,3.19,2.37,3.22a12.17,12.17,0,0,1,3.23.36c2,.3,1.56,1.39,2.26,2.83s1.4.73,2.64.8,1.56,1.39,2.3-.52,1-.32,1.17-3,5.68-1.64,6.21-3S62.6,41.5,61.09,38.9s-14.47-7.15-15.45-9-1.25-16.3-1.31-17.24.37-2,.1-2.42-1.24-.07-1.67-1.12S43,7.4,41,7.1s-2.36-.41-3.43.18-1.33-1.16-3.43-.65c-1,.25-.46.62-1.8.83s-1.06,2-1.46,2c-2.45,0-1.79-.21-2.74,1.24-.33.51,1.77.16,1.16,1.44-.37.79-1.58.6-2.32.93-2.13.93,1.23,3.32-.75,3s-1.91-3.95-4-3c-1.11.51-1.3.87-2.06,1.05s-1.25.14-1.67,1.23.74.71-1.46,2.39c-1.67,1.28-.51,2.27-.83,3.1s.32,1.2-.64,1.52-1.3-.55-2,.15-.15,1.38-1.15,2.28c-1.26,1.15-.36,2.05-.2,2.71s-1.48.81-.19,1.92-.48,1.93.43,2.82,1,.61,1.09,1.55c.09,1.51,2.21.36,1.93.51C16.47,33.83,16.55,35.17,16.55,35.17Z"/><g class="cls-9"><path class="cls-10" d="M32.56,28.18c-.69-1.2-1.73-4.5-3.28-6.46s-1.24,0-3.55-2.13-1.28-4.78-3.16-2.84-2.57.73-2.74,2.68-3.77,2.37.36,3.59,5.95,1.3,7.21,2.13S32.56,28.18,32.56,28.18Z"/><path id="_Path_" data-name="&lt;Path&gt;" class="cls-11" d="M27.77,22.51s.33,1.33-2.68.41-2.8-1.46-4.35-.71-.64.79-2.84,1-.93-.12-2.38.36-1.12.44-2.23,2.48c-.23.42,1,1.43,1.39,1.55s-.93,1.05-.5,2.1.92,1.42.49,2.51,3.3-1.67,4.21-.35c1.23,1.77,1.37.26,3.25.84s3.22.36,2.79-.69.36-2.75-1.27-2-2.56,1.43-2.48-.08.09.64-.3-1.62-2-2.45-.55-2.93a13.5,13.5,0,0,1,2.9-.95c1.82-.37-.54-.78,1.93-.64S27.77,22.51,27.77,22.51Z"/><path id="_Path_2" data-name="&lt;Path&gt;" class="cls-12" d="M42.05,26.39s-1.64.31-.19-3.33,2.1-3.33,1.36-5.3-.89-.84-.94-3.57.25-1.13-.17-2.95-.41-1.41-2.77-2.93c-.47-.31-1.85,1.14-2,1.6s-1.18-1.23-2.5-.78-1.84,1-3.12.42,1.66,4.18-.05,5.2c-2.3,1.38-.48,1.67-1.39,3.94s-.81,3.93.52,3.48,3.3.65,2.54-1.42-1.45-3.25.38-3-.78.07,2-.24,3.2-2.27,3.62-.46a16.66,16.66,0,0,1,.84,3.63c.23,2.27,1-.6.55,2.42S42.05,26.39,42.05,26.39Z"/><path class="cls-13" d="M26.55,32.36a1.09,1.09,0,0,0-.64-.11c-.55.07-1.7-.65-2.79-.34-.81.23-.69,1.16-2,1.82-1.54.76,3.12,1.3,3.39,1.69s-.37,1.37,1,1.16,1.18-.87,2.46-2C28.93,33.67,27.27,32.71,26.55,32.36Z"/><path class="cls-11" d="M26.52,37.64c-.93-1.33.52-3,3.24-2.75,1,.09,2.47,2.38,4.88,1.58s4.23-3.31,4-.61,8,1,7.06,2.24,1.15,2.7-1.64,3.39-5.47.91-6.92,1.39-1.66-.35-2.83.24c-.36.18-1,.9-1.74.71s-.68-1.09-.82-1.89c-.07-.36-1.61.36-2.3.23C27.14,41.74,27.61,41,27.61,41a1.9,1.9,0,0,1-1.91-.83C25.16,39.38,26.52,37.64,26.52,37.64Z"/><path class="cls-14" d="M45.16,41.49s-2.27.26-2.81,1.63-2.28,1-1.53,1.18a23.13,23.13,0,0,0,2.72.1c.38.12-.64-.5.38.12s4.65.45,4.65.45Z"/></g><g class="cls-15"><path id="_Clipping_Path_15" data-name="&lt;Clipping Path&gt;" class="cls-2" d="M55.43,15.38c-.1.29-.21,1.45-.34,1.62-.51.68-2.27.55-3.29,1.91S45.07,23,42.46,24,26.11,32.15,24,32.46s-3.37-1.17-7.09-3.12c-2-1-4.36-4.85-1.36-7.08.44-.33,2.79-.72,4.82-2A44,44,0,0,1,29.43,17c2.25-.26,5-2.42,6.62-4,.66-.61,10.19-7.26,11.68-6.17s6.08,3.69,6.68,5.24c.45,1.15,1.29,2.22,1,3.08"/><g class="cls-16"><path class="cls-2" d="M21.9,21.07a3.74,3.74,0,0,0,.45.12c1.3.2,6.2,0,8.49.46,3.8.81,6.82,1.9,8.83,1.2a7.83,7.83,0,0,0,4.63-4.93c.58-2.05,0-10.2-1.54-9.42C34,12.83,18.49,20.44,20.22,20.5A11.09,11.09,0,0,1,21.9,21.07Z"/><path id="_Path_3" data-name="&lt;Path&gt;" class="cls-17" d="M15,22.46c-.54.83-3.17,3.39-2.88,4.34s10.6,7.84,11.39,8.53c1.46,1.27,1.57,1.67,3.35,3s2.26,2.23,5.25,1.47,3-2,6.36-2.76,13.25-5.74,15.69-6.93,8.28-3.27,9.63-5.51,2-2.81.79-4.6-5.88-7.27-7.67-7.66C55.75,12.12,53.66,9,53.66,9a13.63,13.63,0,0,0,0,3.37,2.84,2.84,0,0,1-.8,2.23c-1.12,1.15-1.69,2.14-3.23,2.14-7.47,0-8.93,3-10.63,4.9-.74.81-2.73,1.78-5.88,2.24-1.1.16-1.64,1.64-3,1.83-1.66.24-2.78,1.7-4,2.28a10.8,10.8,0,0,1-9.08,0C14.46,26.59,15,22.46,15,22.46Z"/><path id="_Clipping_Path_16" data-name="&lt;Clipping Path&gt;" class="cls-2" d="M18.72,23.79c-.5-.14-2.4-1-2.87-.84-.83.33-1.09,1.65-1.07,2.49,0,1.29,1.28,2.7,3.68,3.88,1.25.62,4.95,4,6,1.15.7-1.94.46-2.37-1.3-4.15A12.21,12.21,0,0,0,18.72,23.79Z"/><g class="cls-18"><path class="cls-2" d="M13.91,27a14,14,0,0,1,2.33-1.46,5,5,0,0,1,4.28.28c1.92,1,2.95,1.06,4,2.42s3.69-1.1,2.26-2.56-4.44-6.22-6.19-5.51-7.54,1-7.12,2.31A22.21,22.21,0,0,1,13.91,27Z"/></g></g><path class="cls-2" d="M71.71,23.24a.79.79,0,0,1,1.17.51c.34,2.54.79,8.25.73,8.4-.57,1.43.19,5.58-1.57,6.79S59.19,45,59.39,44c.28-1.55,1.47-1.8-.81-3.45S52,38.52,50.39,38s-6.16-2.51-5.06-2.6,12.44-5.29,14.07-6.31C60.73,28.29,68.87,24.75,71.71,23.24Z"/><path class="cls-2" d="M22.26,20.69s5.87,0,8.19.11,7.59,2.34,9.28,1.39a13.31,13.31,0,0,0,3.72-4.14c.83-1.84,1.63-10.44-.57-9.45C39.64,10.06,34.6,13,30.76,15c-6.53,3.4-11.59,5.74-10.91,5.7Z"/><path id="_Clipping_Path_17" data-name="&lt;Clipping Path&gt;" class="cls-2" d="M23.88,31.91a2.77,2.77,0,0,0-.64,2.7,6.2,6.2,0,0,0,1.55,2.73c1.46,1.27,1.58,1.67,3.36,3s2.25,2.23,5.24,1.47,3-2.05,6.36-2.76S53,33.34,55.44,32.15s8.29-3.27,9.64-5.51,2-2.81.79-4.6A17.75,17.75,0,0,0,58.59,17c-1.8-.39-2.83-.33-6,1.52s-9.63,4-12.27,5.2C38,24.72,27.51,28.08,23.88,31.91Z"/><g class="cls-19"><path class="cls-2" d="M31.19,29.25s7.54,1.48,11.39,4.17"/><path class="cls-2" d="M32.8,29.07c1.83-1.2,8.76,3,11.68,4.72.74.42,2.06,3.9,2.29,4.73.83,3,8.43-4.64,8.87-5.1s2.74-7.06,2.39-9.59c-.22-1.56,0-6.34-1.32-5.58S34.07,28.15,33,28.58,32.8,29.07,32.8,29.07Z"/><path id="_Path_4" data-name="&lt;Path&gt;" class="cls-20" d="M23.73,31.41c-.76.64-1.53,5.14-1.24,6.09S33.1,45.33,33.88,46c1.46,1.28,1.58,1.67,3.36,3s2.25,2.22,5.24,1.46,3-2.05,6.36-2.76S62.1,42,64.53,40.84s8.29-3.28,9.64-5.52,2-2.8.79-4.6-5.88-7.27-7.67-7.66c-1.13-.24-.23-2.06-.23-2.06-.18.22-2.83,1.45-2.74,2.69.07.83-2.78,1.92-3.36,2.51-1.11,1.15-4.33,2.22-5.87,2.22-7.46,0-4,2.08-5.66,3.94-.74.8-2.72,1.77-5.88,2.24-1.09.16-1.64,1.64-2.95,1.83-1.67.23-2.78,1.69-4,2.27A10.13,10.13,0,0,1,26,37.18C24,35.44,23.85,31.3,23.73,31.41Z"/></g><path id="_Clipping_Path_18" data-name="&lt;Clipping Path&gt;" class="cls-2" d="M24.9,32a2,2,0,0,1,.91-.09,6.77,6.77,0,0,1,3.57,2.27c1.24,1.63,1.67,1.46,2.46,3.25s.61,5.49-2,3.28-3-1.72-4.74-4.27c-.77-1.11-2-2.71-.94-3.93A1.77,1.77,0,0,1,24.9,32"/><g class="cls-21"><path class="cls-2" d="M26,30.16s-2.95,1.36-1.87,2.4,5.6,2.5,6.17,4.22.44,2.75,1.77,4.63c1.6,2.28,2.09,1.35,1.8-.9s.09-6.25-1.86-7A58.44,58.44,0,0,1,26,30.16Z"/></g><path id="_Clipping_Path_19" data-name="&lt;Clipping Path&gt;" class="cls-2" d="M41.53,40.18a3.41,3.41,0,0,1,.38-3,4.69,4.69,0,0,1,1.83-1.7c3.67-1.58,6.65-1.93,8.47-3.13s15.71-5.57,17.59-7.2,4.13-3.66,6.32-1.75,8.54,6.34,8.3,8,1.36,2-1.88,3.1S77,36,73.62,37.81s-7.49,4.84-11.57,6a32.05,32.05,0,0,0-7.9,3.5c-2.24,1.22-5.35.43-6.27-.73C45.76,44,42.74,43,41.53,40.18Z"/><g class="cls-22"><path class="cls-2" d="M72.11,23.68a.81.81,0,0,1,1.18.57c.26,2.62.5,8.51.44,8.66-.64,1.45,0,5.75-1.86,6.93s-12.63,7.24-13,5.67,1.44-2.79-.84-4.57-7-2.25-8.56-2.82-5-3-3.92-3.08,12-4.78,13.74-5.77C60.65,28.46,69.14,25.13,72.11,23.68Z"/><path class="cls-2" d="M71.52,22.8a.79.79,0,0,1,1.16.57c.25,2.62.48,8.5.41,8.66-.62,1.44,0,5.74-1.84,6.92s-12.42,7.27-12.81,5.71,1.41-2.79-.82-4.57-6.82-2.24-8.4-2.8-4.95-3-3.84-3.07,11.83-4.81,13.51-5.8C60.26,27.61,68.61,24.26,71.52,22.8Z"/><path id="_Path_5" data-name="&lt;Path&gt;" class="cls-17" d="M41.91,37.14c-.76.64-1.37,4.91-1.08,5.86s10.6,7.84,11.39,8.53c1.46,1.27,1.58,1.67,3.35,3s2.26,2.23,5.25,1.47,3-2.05,6.36-2.76,13.25-5.74,15.69-6.93,8.28-3.27,9.64-5.51,2-2.81.78-4.6S87.42,29,85.62,28.57c-1.12-.25-.22-2.06-.22-2.06-.18.21-2.83,1.44-2.74,2.69.06.82-2.78,1.91-3.36,2.51-1.12,1.14-2.35,2.81-3.89,2.81-7.46,0-9,1.69-11.25,2.91-5.58,3.07-9,7.72-10.23,8.3-4.18,2-9.24-2.42-11.54-5.36A3.71,3.71,0,0,1,41.91,37.14Z"/></g></g><path id="_Clipping_Path_20" data-name="&lt;Clipping Path&gt;" class="cls-3" d="M57.3,16A14.07,14.07,0,0,1,57,17.57c-.49.66-2.21.54-3.2,1.86s-6.55,4-9.09,4.93-15.92,8-18,8.26-3.28-1.14-6.91-3c-1.9-1-4.24-4.73-1.32-6.9.43-.32,2.72-.7,4.7-1.91A43.31,43.31,0,0,1,32,17.54c2.2-.25,4.86-2.36,6.46-3.86.64-.6,9.91-7.08,11.36-6s5.93,3.59,6.51,5.1c.43,1.12,1.26,2.16,1,3"/><g class="cls-23"><path class="cls-24" d="M24.65,21.53a3.6,3.6,0,0,0,.44.12c1.27.2,6,0,8.27.45,3.7.79,6.64,1.85,8.6,1.17a7.61,7.61,0,0,0,4.51-4.8c.56-2,0-9.93-1.5-9.17C36.43,13.5,21.33,20.92,23,21A10.75,10.75,0,0,1,24.65,21.53Z"/><path id="_Path_6" data-name="&lt;Path&gt;" class="cls-25" d="M17.9,22.88c-.53.81-3.09,3.31-2.81,4.23s10.32,7.64,11.09,8.31c1.42,1.24,1.54,1.62,3.27,2.95s2.2,2.17,5.11,1.43,2.89-2,6.19-2.69S53.65,31.52,56,30.36s8.07-3.18,9.39-5.36,1.91-2.74.77-4.48-5.73-7.08-7.47-7.46c-1.09-.24-3.13-3.26-3.13-3.26a13.41,13.41,0,0,0,0,3.28,2.75,2.75,0,0,1-.78,2.17c-1.09,1.12-1.65,2.08-3.15,2.08-7.26,0-8.69,3-10.35,4.78-.72.78-2.65,1.73-5.72,2.18-1.07.16-1.6,1.6-2.88,1.78-1.62.23-2.71,1.65-3.92,2.22a10.55,10.55,0,0,1-8.84,0C17.41,26.9,17.9,22.88,17.9,22.88Z"/><path id="_Clipping_Path_21" data-name="&lt;Clipping Path&gt;" class="cls-4" d="M21.56,24.18c-.48-.14-2.34-1-2.8-.82-.8.33-1.05,1.61-1,2.42,0,1.26,1.25,2.63,3.59,3.79,1.21.6,4.82,3.87,5.82,1.11.68-1.88.45-2.3-1.26-4A12,12,0,0,0,21.56,24.18Z"/><g class="cls-26"><path class="cls-27" d="M16.87,27.31a13.5,13.5,0,0,1,2.28-1.43,4.93,4.93,0,0,1,4.16.27c1.87.94,2.87,1,3.92,2.37s3.59-1.08,2.2-2.49-4.33-6.07-6-5.37-7.35.94-6.93,2.24A21.44,21.44,0,0,1,16.87,27.31Z"/></g></g><path class="cls-3" d="M72.36,22.78a.79.79,0,0,1,1.17.51c.35,2.54.79,8.24.73,8.4-.56,1.42.19,5.58-1.56,6.79s-12.86,6.09-12.66,5c.28-1.54,1.48-1.79-.8-3.44s-6.62-2-8.2-2.47S44.88,35.06,46,35s12.45-5.29,14.08-6.3C61.39,27.82,69.53,24.29,72.36,22.78Z"/><path class="cls-3" d="M25,21.16s5.72,0,8,.1,7.39,2.29,9,1.36a12.86,12.86,0,0,0,3.63-4c.81-1.79,1.58-10.17-.56-9.2-3.15,1.42-8,4.32-11.8,6.27C26.92,19,22,21.25,22.65,21.21Z"/><ellipse class="cls-28" cx="69.25" cy="18.25" rx="14.92" ry="6.91" transform="translate(-1.77 9.04) rotate(-7.37)"/><path id="_Clipping_Path_22" data-name="&lt;Clipping Path&gt;" class="cls-5" d="M58.88,11.44s.09,6.4,13.46,5.84c12.37-.51,12.73-4.06,13.66-6a32.08,32.08,0,0,1-.22,3.9s-.92,6.5-13.14,6.64c-11.68.14-13.29-5.14-13.46-6.1S58.88,11.44,58.88,11.44Z"/><g class="cls-29"><rect class="cls-30" x="53.9" y="7.06" width="19.5" height="17.45"/></g><ellipse class="cls-31" cx="72.48" cy="12.12" rx="6.55" ry="13.5" transform="translate(58.97 84.36) rotate(-88.91)"/><ellipse id="_Clipping_Path_23" data-name="&lt;Clipping Path&gt;" class="cls-32" cx="72.53" cy="11.94" rx="6.04" ry="13.14" transform="translate(59.21 84.23) rotate(-88.91)"/><path class="cls-6" d="M61.72,12.3c-.27-.16,1.79-2,3.3-2.18.69-.08.2-1.34,1.84-1.34,2.69,0,1.64-.93,4.71-1.48,1.81-.33,2.26-.45,3.86.55,3.2,2,3.5.26,4.5,1.27s2.11,1.21,2.3,2.82c.1.88,2.06,2.48,1.45,3.37S77.6,18,73.4,18c-5.49,0-10-.95-11.3-2.63A2.57,2.57,0,0,1,61.72,12.3Z"/><path class="cls-31" d="M80.85,12a.31.31,0,0,0-.41.35c0,.12.27.46.25.63-.11.83.19.46-.77,1s.76.83-1.06,1.44-3.32,1.38-2.25,1.05l3.9-1.22c.91-.28.77-.53,1.09-1a1.07,1.07,0,0,0,0-1.14C81.52,12.83,81.65,12.16,80.85,12Z"/><path class="cls-31" d="M76.25,14.16c0-.35-.35-.15-.68,0A20.3,20.3,0,0,1,73.1,15c-.73.12-4.48,0-3.76.3a3.29,3.29,0,0,0,2.19.44c.63-.25,1.36.41,2.51.08s.77-.65,1.29-.86A3.2,3.2,0,0,0,76.25,14.16Z"/><path class="cls-31" d="M68.92,12.59c.15-.11,0-.14-.13-.18a4.56,4.56,0,0,1-.85-.38c-.2-.15-.94-1.16-.91-.87s0,.63.28.71.11.49.49.68.43,0,.62,0A1.4,1.4,0,0,0,68.92,12.59Z"/><path class="cls-31" d="M74,8.7a.1.1,0,0,0-.07.19c.26.13.46.29.46.44,0,.43,1.78.8,1.25,1.3s.1.74.1.74a5.77,5.77,0,0,0,1.16-.93c.1-.24-.17-.37-.61-.92A5.46,5.46,0,0,0,74,8.7Z"/><path id="_Clipping_Path_24" data-name="&lt;Clipping Path&gt;" class="cls-3" d="M24.53,31.45a2.76,2.76,0,0,0-.63,2.7,6.07,6.07,0,0,0,1.55,2.72c1.46,1.28,1.57,1.67,3.35,3s2.26,2.22,5.25,1.46,3-2,6.36-2.76,13.25-5.73,15.68-6.92,8.29-3.28,9.64-5.51,2-2.81.79-4.61a17.81,17.81,0,0,0-7.28-5.08c-1.79-.4-2.83-.33-6,1.51S43.63,22,41,23.21C38.63,24.25,28.16,27.62,24.53,31.45Z"/><g class="cls-33"><path class="cls-24" d="M31.84,28.78S39.38,30.26,43.23,33"/><path class="cls-3" d="M33.45,28.6c1.84-1.19,8.76,3,11.69,4.72.74.43,2.06,3.91,2.29,4.73.82,3,8.42-4.64,8.86-5.09s2.75-7.06,2.4-9.59c-.22-1.56,0-6.35-1.33-5.58s-22.64,9.9-23.73,10.32S33.45,28.6,33.45,28.6Z"/><path id="_Path_7" data-name="&lt;Path&gt;" class="cls-34" d="M24.38,30.94c-.76.64-1.52,5.14-1.23,6.09s10.6,7.84,11.39,8.53c1.46,1.27,1.57,1.67,3.35,3s2.26,2.23,5.25,1.47,3-2.05,6.36-2.76,13.25-5.74,15.68-6.93,8.29-3.27,9.64-5.51,2-2.81.79-4.6S69.73,23,67.94,22.6c-1.12-.25-.23-2.06-.23-2.06-.18.21-2.83,1.44-2.73,2.69.06.83-2.78,1.92-3.36,2.51A11.05,11.05,0,0,1,55.74,28c-7.46,0-4,2.09-5.65,3.94-.74.81-2.73,1.78-5.88,2.24-1.1.16-1.64,1.65-3,1.83-1.66.24-2.78,1.7-4,2.28a10.12,10.12,0,0,1-10.55-1.53C24.67,35,24.5,30.84,24.38,30.94Z"/></g><path id="_Clipping_Path_25" data-name="&lt;Clipping Path&gt;" class="cls-4" d="M27.57,32.2a1.91,1.91,0,0,1,.89-.09,6.65,6.65,0,0,1,3.48,2.21c1.2,1.58,1.62,1.42,2.4,3.16s.58,5.35-2,3.2-2.9-1.67-4.62-4.16c-.75-1.08-1.95-2.64-.91-3.83a1.63,1.63,0,0,1,.73-.49"/><g class="cls-35"><path class="cls-27" d="M28.67,30.38s-2.88,1.33-1.83,2.34,5.46,2.43,6,4.11.43,2.68,1.71,4.51c1.57,2.22,2,1.31,1.76-.87s.08-6.09-1.81-6.85A56.42,56.42,0,0,1,28.67,30.38Z"/></g><path id="_Clipping_Path_26" data-name="&lt;Clipping Path&gt;" class="cls-3" d="M42.19,39.72a3.4,3.4,0,0,1,.37-3A4.78,4.78,0,0,1,44.39,35c3.67-1.57,6.66-1.93,8.47-3.13s15.72-5.57,17.6-7.19S74.59,21,76.78,22.9s8.53,6.33,8.3,8,1.35,2-1.89,3.1-5.57,1.56-8.92,3.38-7.49,4.84-11.56,6a31.61,31.61,0,0,0-7.91,3.5c-2.23,1.21-5.35.42-6.27-.73C46.41,43.49,43.39,42.56,42.19,39.72Z"/><g class="cls-36"><path class="cls-24" d="M72.76,23.21a.82.82,0,0,1,1.18.57c.26,2.63.51,8.51.44,8.67-.63,1.44,0,5.74-1.86,6.92s-12.63,7.24-13,5.68,1.43-2.79-.85-4.57-7-2.26-8.56-2.82-5-3-3.91-3.08,12-4.79,13.74-5.77C61.31,28,69.79,24.66,72.76,23.21Z"/><path class="cls-3" d="M72.18,22.34a.79.79,0,0,1,1.16.56c.25,2.63.47,8.51.4,8.66-.62,1.45,0,5.75-1.84,6.93s-12.41,7.27-12.81,5.7,1.42-2.79-.82-4.56-6.82-2.24-8.4-2.8-4.95-3-3.83-3.07S57.86,29,59.54,28C60.92,27.15,69.26,23.79,72.18,22.34Z"/><path id="_Path_8" data-name="&lt;Path&gt;" class="cls-25" d="M42.56,36.68c-.76.64-1.37,4.91-1.07,5.86s10.6,7.84,11.38,8.52c1.46,1.28,1.58,1.67,3.36,3s2.26,2.22,5.24,1.46,3-2,6.37-2.76,13.25-5.73,15.68-6.92,8.29-3.28,9.64-5.51,2-2.81.79-4.61-5.88-7.26-7.67-7.66c-1.13-.24-.23-2.05-.23-2.05-.18.21-2.83,1.44-2.74,2.69.07.82-2.78,1.91-3.35,2.5-1.12,1.15-2.35,2.82-3.89,2.82-7.47,0-9,1.69-11.26,2.9-5.57,3.08-9,7.72-10.23,8.3-4.18,2-9.24-2.42-11.53-5.36A3.68,3.68,0,0,1,42.56,36.68Z"/></g><path id="_Clipping_Path_27" data-name="&lt;Clipping Path&gt;" class="cls-4" d="M41,38.85c.13-.76,1.19-.74,2-.73a4.69,4.69,0,0,1,3.1,1.66,13.29,13.29,0,0,1,3.37,5.3c.53,1.35.39,2.3-1.51,1.76a3.63,3.63,0,0,1-2.57-2.15c-.29-.52-4.67-3.09-4.44-4.67C40.94,39.81,41,39,41,38.85Z"/><g class="cls-37"><path class="cls-27" d="M40.76,37.39s2,1.36,3.1,2.13,2.37.77,3,2-.27,2.62,1.1,3.1-.15,2.23-.46,3.16,3.78,0,3.84-.52,1.9-3.15-1.51-5.64-5.65-4.36-5.65-4.36Z"/></g></g></g></svg>