<svg xmlns="http://www.w3.org/2000/svg" viewBox="0 0 81.26 81.26"><defs><style>.cls-1{fill:#ee4a6a;}</style></defs><title>trio</title><g id="Layer_2" data-name="Layer 2"><g id="Layer_1-2" data-name="Layer 1"><path class="cls-1" d="M40.63,0A40.63,40.63,0,1,0,81.26,40.63,40.68,40.68,0,0,0,40.63,0ZM76.48,40.63A35.86,35.86,0,1,1,40.63,4.77,35.89,35.89,0,0,1,76.48,40.63Z"/><path class="cls-1" d="M24.12,37.76a9,9,0,0,0-11.55,4.71,8.34,8.34,0,0,0,.07,6.5,9.08,9.08,0,0,0,5,4.9,12.4,12.4,0,0,0,4.61.8A27.66,27.66,0,0,0,32.27,52.4,2.17,2.17,0,0,0,33.56,49C33.42,48.64,30.1,40.15,24.12,37.76Z"/><path class="cls-1" d="M47.58,49a2.18,2.18,0,0,0,1.28,3.4,27.8,27.8,0,0,0,10.06,2.27,12.44,12.44,0,0,0,4.61-.8,9.08,9.08,0,0,0,5-4.9,8.34,8.34,0,0,0,.07-6.5A9,9,0,0,0,57,37.76C51,40.15,47.72,48.64,47.58,49Z"/><path class="cls-1" d="M49.32,33.37a9,9,0,0,0-8.64-9,8.38,8.38,0,0,0-6,2.47,9.08,9.08,0,0,0-2.73,6.43,12.52,12.52,0,0,0,1,4.58,27.93,27.93,0,0,0,5.82,8.51,2.59,2.59,0,0,0,1.85.95,2.57,2.57,0,0,0,1.79-1C42.64,46,49.3,39.81,49.32,33.37Z"/></g></g></svg>