<svg xmlns="http://www.w3.org/2000/svg" xmlns:xlink="http://www.w3.org/1999/xlink" viewBox="0 0 33.09 44.75"><defs><style>.cls-1{fill:#f7a6aa;}.cls-2{fill:#dd3952;}.cls-3{fill:#f2d1cb;}.cls-4{clip-path:url(#clip-path);}.cls-5{fill:#f37a88;opacity:0.31;}.cls-6{fill:#ededee;}.cls-7{clip-path:url(#clip-path-2);}.cls-8{clip-path:url(#clip-path-3);}</style><clipPath id="clip-path"><path id="_Clipping_Path_" data-name="&lt;Clipping Path&gt;" class="cls-1" d="M30.25,30.41c-.32,2.93-.41,6.5-2.27,8.21-4.27,4-14.4,5.6-19.45-.77-.59-.74-1.24-6.2-1.24-6.92L4.64,7.6l27.93.93Z"/></clipPath><clipPath id="clip-path-2"><ellipse id="_Ellipse_" data-name="&lt;Ellipse&gt;" class="cls-2" cx="18.5" cy="8.4" rx="13.78" ry="7.9"/></clipPath><clipPath id="clip-path-3"><path id="_Clipping_Path_2" data-name="&lt;Clipping Path&gt;" class="cls-3" d="M3.82,16.75S4.64,6.48,17.74,6C29,5.53,32.28,11.48,31.67,15s-14.1,4.79-14.1,4.79Z"/></clipPath></defs><title>cup</title><g id="Layer_2" data-name="Layer 2"><g id="Layer_1-2" data-name="Layer 1"><ellipse class="cls-2" cx="14.48" cy="36.27" rx="14.48" ry="6.42"/><path id="_Clipping_Path_3" data-name="&lt;Clipping Path&gt;" class="cls-1" d="M30.25,30.41c-.32,2.93-.41,6.5-2.27,8.21-4.27,4-14.4,5.6-19.45-.77-.59-.74-1.24-6.2-1.24-6.92L4.64,7.6l27.93.93Z"/><g class="cls-4"><path class="cls-5" d="M25,13.1S18.3,42.54,20.3,43.89c3.29,2.21-17.85-.56-17.85-.56L.74,12.72Z"/></g><ellipse class="cls-6" cx="18.61" cy="8.66" rx="14.47" ry="8.66"/><ellipse id="_Ellipse_2" data-name="&lt;Ellipse&gt;" class="cls-2" cx="18.5" cy="8.4" rx="13.78" ry="7.9"/><g class="cls-7"><path id="_Clipping_Path_4" data-name="&lt;Clipping Path&gt;" class="cls-3" d="M3.82,16.75S4.64,6.48,17.74,6C29,5.53,32.28,11.48,31.67,15s-14.1,4.79-14.1,4.79Z"/><g class="cls-8"><path class="cls-6" d="M21.67,7.39c-.18-.47,8.08.88,9.49,6.17A22.06,22.06,0,0,0,26.87,9.5C24.6,7.94,21.75,7.62,21.67,7.39Z"/><path class="cls-6" d="M11.36,9.88c-.41-.15,4.27-4.15,8.56-2.19A18.5,18.5,0,0,0,15.17,8C13.06,8.49,11.55,10,11.36,9.88Z"/></g></g></g></g></svg>