<svg xmlns="http://www.w3.org/2000/svg" xmlns:xlink="http://www.w3.org/1999/xlink" viewBox="0 0 344.73 178.5"><defs><style>.cls-1{fill:#e8e8e8;}.cls-2{fill:#040404;}.cls-3{fill:#dc3651;}.cls-4{clip-path:url(#clip-path);}.cls-5{fill:#e5e5e5;}.cls-6{fill:#fff;}.cls-7{fill:#ff4868;}.cls-8{clip-path:url(#clip-path-2);}.cls-9{fill:#606060;}.cls-10{fill:#939292;}</style><clipPath id="clip-path"><path id="_Clipping_Path_" data-name="&lt;Clipping Path&gt;" class="cls-1" d="M340.44,48.43a11.25,11.25,0,0,1,4.22,7.85A13.46,13.46,0,0,1,338,69.58c-5.23,3.33-199.6,100.28-199.6,100.28s-9,4.75-16.63,5.23-16.63-2.38-19.49-3.81-76-37.06-79.83-39.92-9.51-7.6-9-13.78,1.9-8.08,7.6-11.4S340.44,48.43,340.44,48.43Z"/></clipPath><clipPath id="clip-path-2"><path id="_Clipping_Path_2" data-name="&lt;Clipping Path&gt;" class="cls-2" d="M66.05,145.46l-7.24-3.4s-2.38-1.43-3.33.47-.72,2.37.48,3.42c.8.7,8.87,5.68,10.93,5.14,1.66-.44,2-2.74,1.46-3.81A6.55,6.55,0,0,0,66.05,145.46Z"/></clipPath></defs><title>phone</title><g id="Layer_2" data-name="Layer 2"><g id="Layer_1-2" data-name="Layer 1"><path class="cls-3" d="M22,105.18C16.37,106.84,2.42,115,.32,121-4,133.35,36.67,150.14,45,154.47a413.58,413.58,0,0,0,40.2,18.63c11.28,4.39,28.21,10.66,50.78-2.51S224.87,8.72,224.87,8.72,22.12,105.15,22,105.18Z"/><path id="_Clipping_Path_3" data-name="&lt;Clipping Path&gt;" class="cls-1" d="M340.44,48.43a11.25,11.25,0,0,1,4.22,7.85A13.46,13.46,0,0,1,338,69.58c-5.23,3.33-199.6,100.28-199.6,100.28s-9,4.75-16.63,5.23-16.63-2.38-19.49-3.81-76-37.06-79.83-39.92-9.51-7.6-9-13.78,1.9-8.08,7.6-11.4S340.44,48.43,340.44,48.43Z"/><g class="cls-4"><path class="cls-5" d="M104.2,165.11a31.71,31.71,0,0,0,19.48,2.37c7.49-1.4,22.81-9,22.81-9C314.34,74.53,314.33,74.52,324.23,70.06c9.5-4.28,15.17-6.67,17.58-10.46,3.33-5.22-1.43-11.4-1.43-11.4L156.47,110.93s-140.22-10-141.92-5.1c-3.07,8.81.3,13.65,3.63,15.55S104.2,165.11,104.2,165.11Z"/></g><path class="cls-6" d="M133.77,161,331.25,62.84s10.67-4.78,10.66-10.38c0-3.77-2.9-6.11-8.55-8.84L249,1.66c-4.58-2.88-16.7-1.7-22.4,1.15L20.79,105.46c-5.15,2.38-6.58,6.64-4.46,10.05A7,7,0,0,0,19.21,118l83.41,41.6c3.41,1.75,13.38,7.45,29.66,2A11.41,11.41,0,0,0,133.77,161Z"/><path class="cls-7" d="M132.52,156.08l200-100.38a5.4,5.4,0,0,0,1.24-.92c2.58-2.58,1.71-6.51-1.56-8.13L249,5c-3.81-1.9-13.07-3.09-17.38-.82L27.1,105.33c-4.12,2-5,7.6-1.5,9.4l83.81,42.15C112.8,158.69,125.87,160.35,132.52,156.08Z"/><path class="cls-6" d="M318.15,39.28a36.1,36.1,0,0,1-6.52,2,17.09,17.09,0,0,1-10.45-1.9c-3.33-1.9-41.35-20.91-41.35-20.91S256,16.12,257,14.22s3.83-3.66,3.83-3.66Z"/><path id="_Clipping_Path_4" data-name="&lt;Clipping Path&gt;" class="cls-2" d="M66.05,145.46l-7.24-3.4s-2.38-1.43-3.33.47-.72,2.37.48,3.42c.8.7,8.87,5.68,10.93,5.14,1.66-.44,2-2.74,1.46-3.81A6.55,6.55,0,0,0,66.05,145.46Z"/><g class="cls-8"><path class="cls-9" d="M53.5,140.31c-.25.06,0,1.15.34,2.37A14.18,14.18,0,0,1,55.62,146c.44-.17.89-.49.68-1-1.15-3.06,4.59-5.36,4.59-5.36S54.06,140.16,53.5,140.31Z"/><path class="cls-10" d="M61.34,147.87a24.68,24.68,0,0,1-5-3.35c-.54-.53-.87-.35-1.25.15a13.81,13.81,0,0,1,1.52,5.91L60.71,153l7.61,2.3,2.85-4.2S68.31,151.43,61.34,147.87Z"/></g><path class="cls-6" d="M199.72,66.22a6.29,6.29,0,0,0-7.82.76c-2.44,2.72-1.16,8.06-1.16,8.06.14.67.52.92,1.32.85,0,0,6.35-.44,8.88-3.09C202.79,70.74,202.27,67.86,199.72,66.22Zm-7.46,8.29s-.89-4.62.89-6.61a4.54,4.54,0,0,1,5.58-.58,3.11,3.11,0,0,1,.83,4.7C197.68,73.94,192.26,74.51,192.26,74.51Z"/><path class="cls-6" d="M187.68,74.09s1.45-4.7-.77-7.64a6.22,6.22,0,0,0-7.19-1.84,3.78,3.78,0,0,0-1.43,5.9c2.22,2.94,8.09,4.26,8.09,4.26C187.18,75,187.54,74.87,187.68,74.09Zm-8.13-3.93a2.77,2.77,0,0,1,.9-4.4,4.59,4.59,0,0,1,5.25,1.42c1.58,2.1.5,6.39.5,6.39S181.13,72.26,179.55,70.16Z"/><path class="cls-6" d="M207.64,82.86c.73-2.48-1.32-5.1-4.39-5.9-4.21-1-9.73,1.55-9.73,1.55-.76.33-.82.62-.35,1.27h0s3.35,4.87,7.65,6C204,86.63,207.15,85.26,207.64,82.86Zm-6.89,1.6c-3.07-.8-6.18-4.93-6.18-4.93s5-2.2,8.09-1.41c2.2.59,3.84,2.47,3.3,4.25S203,85,200.75,84.46Z"/></g></g></svg>