<svg xmlns="http://www.w3.org/2000/svg" xmlns:xlink="http://www.w3.org/1999/xlink" viewBox="0 0 138.63 76.72"><defs><style>.cls-1{fill:#f7a6a9;}.cls-2,.cls-5{fill:#f37a87;}.cls-3{fill:#dc3651;}.cls-4{clip-path:url(#clip-path);}.cls-5{opacity:0.31;}.cls-6{fill:#ededed;}.cls-7{clip-path:url(#clip-path-2);}.cls-8{fill:#942844;}</style><clipPath id="clip-path"><path id="_Clipping_Path_" data-name="&lt;Clipping Path&gt;" class="cls-1" d="M15.42,28.69s0,27.29,61,24.74c56.44-2.36,57.87-15.11,62.11-24.12l-.77,14.34s-4.22,29.7-60,30.36C24.48,74.64,18,50.53,17.23,46.14S15.42,28.69,15.42,28.69Z"/></clipPath><clipPath id="clip-path-2"><ellipse id="_Clipping_Path_2" data-name="&lt;Clipping Path&gt;" class="cls-2" cx="77.26" cy="29.05" rx="27.59" ry="59.99" transform="matrix(0.02, -1, 1, 0.02, 46.74, 105.74)"/></clipPath></defs><title>sauce</title><g id="Layer_2" data-name="Layer 2"><g id="Layer_1-2" data-name="Layer 1"><path class="cls-3" d="M131.41,40.07c1.06,15.11-26.95,30.05-62.56,32.13S.42,64.76.42,47.25c0-14.93,29-28.66,64.6-30.75S130.35,25,131.41,40.07Z"/><path id="_Clipping_Path_3" data-name="&lt;Clipping Path&gt;" class="cls-1" d="M15.42,28.69s0,27.29,61,24.74c56.44-2.36,57.87-15.11,62.11-24.12l-.77,14.34s-4.22,29.7-60,30.36C24.48,74.64,18,50.53,17.23,46.14S15.42,28.69,15.42,28.69Z"/><g class="cls-4"><polygon class="cls-5" points="73.6 48.18 38.23 76.72 0 70.57 5.76 25.63 73.6 48.18"/></g><ellipse class="cls-6" cx="77.02" cy="29.9" rx="29.88" ry="61.62" transform="translate(45.67 106.34) rotate(-88.91)"/><ellipse id="_Clipping_Path_4" data-name="&lt;Clipping Path&gt;" class="cls-2" cx="77.26" cy="29.05" rx="27.59" ry="59.99" transform="matrix(0.02, -1, 1, 0.02, 46.74, 105.74)"/><g class="cls-7"><path id="_Clipping_Path_5" data-name="&lt;Clipping Path&gt;" class="cls-8" d="M75.1,14c35.89-1.25,55.76,14.3,55.47,28.29S88.75,70.25,34.78,51C3.73,39.94,27.16,15.64,75.1,14Z"/></g><path class="cls-6" d="M28.68,36.72s11.81,15.06,37.54,13C66.22,49.69,49.48,50.57,28.68,36.72Z"/></g></g></svg>